<?xml version="1.0" encoding="utf-8"?>
<!-- Generator: Adobe Illustrator 19.0.0, SVG Export Plug-In . SVG Version: 6.00 Build 0)  -->
<!DOCTYPE svg PUBLIC "-//W3C//DTD SVG 1.1//EN" "http://www.w3.org/Graphics/SVG/1.1/DTD/svg11.dtd">
<svg version="1.1" id="Layer_1" xmlns="http://www.w3.org/2000/svg" xmlns:xlink="http://www.w3.org/1999/xlink" x="0px" y="0px"
	 viewBox="0 0 75 75" enable-background="new 0 0 75 75" xml:space="preserve">
<path fill="#85929A" d="M66,68.3l-28.6,2.1l15.9-8.1c0,0,0,0,0,0c0.1,0,0.1-0.1,0.1-0.1c0,0,0.1-0.1,0.1-0.1c0,0,0.1-0.1,0.1-0.1
	c0,0,0.1-0.1,0.1-0.1c0,0,0.1-0.1,0.1-0.1c0,0,0.1-0.1,0.1-0.1c0,0,0.1-0.1,0.1-0.1c0-0.1,0.1-0.1,0.1-0.2c0,0,0-0.1,0.1-0.2
	c0-0.1,0-0.1,0-0.2c0-0.1,0-0.1,0-0.2c0-0.1,0-0.1,0-0.2c0,0,0,0,0-0.1V14.3L66,13.4V68.3z M9,9.6l41.5-5.5V59l-22.7,3c0,0,0,0,0,0
	L9,64.5L9,9.6L9,9.6z M69.2,9.9c-0.4-0.4-0.9-0.5-1.4-0.5l-13.4,1V1.9c0-0.6-0.2-1.1-0.7-1.4c-0.4-0.4-1-0.5-1.5-0.5L6.8,6
	C5.9,6.2,5.2,7,5.2,7.9v58.8c0,0.6,0.2,1.1,0.7,1.4c0.4,0.3,0.8,0.5,1.3,0.5c0.1,0,0.2,0,0.2,0l18.8-2.5v7c0,0.2,0,0.3,0.1,0.4
	c0,0,0,0.1,0,0.1c0,0.1,0.1,0.2,0.1,0.3c0,0,0.1,0.1,0.1,0.1c0.1,0.1,0.1,0.2,0.2,0.2c0,0,0.1,0.1,0.1,0.1c0,0,0,0,0,0
	c0.1,0.1,0.2,0.2,0.3,0.2c0,0,0,0,0,0c0,0,0,0,0,0c0.1,0.1,0.3,0.1,0.4,0.2c0,0,0.1,0,0.1,0c0.1,0,0.3,0.1,0.5,0.1c0,0,0.1,0,0.1,0
	l39.9-3c1-0.1,1.8-0.9,1.8-1.9V11.3C69.8,10.8,69.6,10.3,69.2,9.9z"/>
<g>
	<path fill="#85929A" d="M42.4,43c0,1.5-1.3,2.8-2.8,2.8c-1.5,0-2.8-1.3-2.8-2.8c0-1.5,1.3-2.8,2.8-2.8C41.1,40.2,42.4,41.4,42.4,43
		z M34.3,43c0,2.9,2.4,5.3,5.3,5.3s5.3-2.4,5.3-5.3c0-2.9-2.4-5.3-5.3-5.3S34.3,40,34.3,43z"/>
	<polygon fill="#85929A" points="15.2,32.9 17.1,34.9 19.8,32.2 22.6,34.9 24.5,32.9 21.8,30.2 24.5,27.5 22.6,25.5 19.8,28.3 
		17.1,25.5 15.1,27.5 17.9,30.2 	"/>
	<path fill="#85929A" d="M16.1,44.2l0.3,2.5c9.9-1.2,17.7-9,19.2-18.8l4,0l-5-8.8l-5.1,8.7l3.6,0C31.6,36.4,24.8,43.2,16.1,44.2z"/>
</g>
</svg>
