<?xml version="1.0" encoding="utf-8"?>
<!-- Generator: Adobe Illustrator 19.0.0, SVG Export Plug-In . SVG Version: 6.00 Build 0)  -->
<!DOCTYPE svg PUBLIC "-//W3C//DTD SVG 1.1//EN" "http://www.w3.org/Graphics/SVG/1.1/DTD/svg11.dtd">
<svg version="1.1" id="Layer_1" xmlns="http://www.w3.org/2000/svg" xmlns:xlink="http://www.w3.org/1999/xlink" x="0px" y="0px"
	 viewBox="0 0 75 75" enable-background="new 0 0 75 75" xml:space="preserve">
<path fill="#85929A" d="M35.1,47h-0.9H35.1z M37.6,47h-0.9H37.6z M13,44.8v-0.5H9.5v2.5c0,1.4,1.1,2.6,2.6,2.6h19.3
	c0,0.1-0.1,0.2-0.1,0.3c0,1.4-1.4,3.8-2.9,5.2l-2.2,2c-1.6,1.5-1.2,2.7,0.9,2.7h17.5c2.1,0,2.6-1.2,0.9-2.7l-2.2-2
	c-1.6-1.5-2.9-3.8-2.9-5.2c0-0.1,0-0.2-0.1-0.3h7v-4.6L13,44.8L13,44.8z"/>
<path fill="#85929A" d="M13,17.8h44.9v10.8l3.5-1.6V15.8c0-1.4-1.1-2.6-2.6-2.6H12c-1.4,0-2.6,1.1-2.6,2.6v2.4H13L13,17.8L13,17.8z"
	/>
<polygon fill="#85929A" points="36.8,28 34.4,20.3 31.9,28 23.9,28 30.3,32.7 27.8,40.4 34.4,35.6 40.9,40.4 38.4,32.7 44.9,28 "/>
<path fill="#85929A" d="M5.7,37.6V23.2h9.7v14.4H5.7z M10.6,40.9c-0.6,0-1.1-0.5-1.1-1.1c0-0.6,0.5-1.1,1.1-1.1
	c0.6,0,1.1,0.5,1.1,1.1C11.7,40.5,11.2,40.9,10.6,40.9z M17.2,40.4V22c0-1.3-1.1-2.2-2.3-2.2H6.1c-1.3,0-2.3,1-2.3,2.2v18.4
	c0,1.3,1.1,2.2,2.3,2.2H15C16.2,42.7,17.2,41.6,17.2,40.4z"/>
<polygon fill="#85929A" points="14.1,28.3 11.4,28.3 10.6,25.7 9.8,28.3 7,28.3 9.2,29.9 8.3,32.5 10.6,30.9 12.8,32.5 11.9,29.9 
	"/>
<path fill="#85929A" d="M66.8,33.8h-4.6l4.6-0.9V33.8z M63.2,30.9l-1.9,0.4l1.9-0.8V30.9z M51.4,57.8V36.4h17.1v21.5L51.4,57.8
	L51.4,57.8z M69.8,33.8h-0.4v-2.5c0-0.4-0.1-0.8-0.4-1c-0.3-0.2-0.7-0.4-1.1-0.3l-0.7,0.1l-1.4,0.3v-1.9c0-0.4-0.2-0.8-0.6-1.1
	c-0.4-0.2-0.8-0.3-1.2-0.1l-14.5,6.4c0,0-0.1,0-0.1,0.1c-0.1,0-0.1,0.1-0.1,0.1C49.3,34,49.2,34,49.1,34c0,0-0.1,0.1-0.1,0.1
	c-0.1,0.1-0.1,0.1-0.1,0.2c0,0.1-0.1,0.1-0.1,0.1c-0.1,0.1-0.1,0.3-0.1,0.4v24.2c0,0.8,0.6,1.3,1.3,1.3h19.7c0.7,0,1.3-0.6,1.3-1.3
	V35C71,34.4,70.4,33.8,69.8,33.8z"/>
<polygon fill="#85929A" points="57.8,47.6 56.5,51.6 59.9,49.1 63.4,51.6 62,47.6 65.5,45.1 61.2,45.1 59.9,41 58.6,45.1 54.3,45.1 
	"/>
</svg>
