<?xml version="1.0" encoding="utf-8"?>
<!-- Generator: Adobe Illustrator 19.0.0, SVG Export Plug-In . SVG Version: 6.00 Build 0)  -->
<!DOCTYPE svg PUBLIC "-//W3C//DTD SVG 1.1//EN" "http://www.w3.org/Graphics/SVG/1.1/DTD/svg11.dtd">
<svg version="1.1" id="Layer_1" xmlns="http://www.w3.org/2000/svg" xmlns:xlink="http://www.w3.org/1999/xlink" x="0px" y="0px"
	 viewBox="-212 213 75 75" style="enable-background:new -212 213 75 75;" xml:space="preserve">
<style type="text/css">
	.st0{fill:#37A4AE;}
</style>
<path class="st0" d="M-146,281.3l-28.6,2.1l15.9-8.1l0,0c0.1,0,0.1-0.1,0.1-0.1l0.1-0.1l0.1-0.1l0.1-0.1l0.1-0.1l0.1-0.1l0.1-0.1
	c0-0.1,0.1-0.1,0.1-0.2c0,0,0-0.1,0.1-0.2c0-0.1,0-0.1,0-0.2c0-0.1,0-0.1,0-0.2s0-0.1,0-0.2c0,0,0,0,0-0.1v-46.2l11.8-0.9V281.3z
	 M-203,222.6l41.5-5.5V272l-22.7,3l0,0l-18.8,2.5V222.6L-203,222.6z M-142.8,222.9c-0.4-0.4-0.9-0.5-1.4-0.5l-13.4,1v-8.5
	c0-0.6-0.2-1.1-0.7-1.4c-0.4-0.4-1-0.5-1.5-0.5l-45.4,6c-0.9,0.2-1.6,1-1.6,1.9v58.8c0,0.6,0.2,1.1,0.7,1.4c0.4,0.3,0.8,0.5,1.3,0.5
	c0.1,0,0.2,0,0.2,0l18.8-2.5v7c0,0.2,0,0.3,0.1,0.4v0.1c0,0.1,0.1,0.2,0.1,0.3l0.1,0.1c0.1,0.1,0.1,0.2,0.2,0.2l0.1,0.1l0,0
	c0.1,0.1,0.2,0.2,0.3,0.2l0,0l0,0c0.1,0.1,0.3,0.1,0.4,0.2h0.1c0.1,0,0.3,0.1,0.5,0.1h0.1l39.9-3c1-0.1,1.8-0.9,1.8-1.9v-58.6
	C-142.2,223.8-142.4,223.3-142.8,222.9z"/>
<g>
	<path class="st0" d="M-169.6,256c0,1.5-1.3,2.8-2.8,2.8s-2.8-1.3-2.8-2.8s1.3-2.8,2.8-2.8S-169.6,254.4-169.6,256z M-177.7,256
		c0,2.9,2.4,5.3,5.3,5.3c2.9,0,5.3-2.4,5.3-5.3s-2.4-5.3-5.3-5.3C-175.3,250.7-177.7,253-177.7,256z"/>
	<polygon class="st0" points="-196.8,245.9 -194.9,247.9 -192.2,245.2 -189.4,247.9 -187.5,245.9 -190.2,243.2 -187.5,240.5 
		-189.4,238.5 -192.2,241.3 -194.9,238.5 -196.9,240.5 -194.1,243.2 	"/>
	<path class="st0" d="M-195.9,257.2l0.3,2.5c9.9-1.2,17.7-9,19.2-18.8h4l-5-8.8l-5.1,8.7h3.6C-180.4,249.4-187.2,256.2-195.9,257.2z
		"/>
</g>
</svg>
