<?xml version="1.0" encoding="utf-8"?>
<!-- Generator: Adobe Illustrator 19.0.0, SVG Export Plug-In . SVG Version: 6.00 Build 0)  -->
<!DOCTYPE svg PUBLIC "-//W3C//DTD SVG 1.1//EN" "http://www.w3.org/Graphics/SVG/1.1/DTD/svg11.dtd">
<svg version="1.1" id="Layer_1" xmlns="http://www.w3.org/2000/svg" xmlns:xlink="http://www.w3.org/1999/xlink" x="0px" y="0px"
	 viewBox="-212 213 75 75" style="enable-background:new -212 213 75 75;" xml:space="preserve">
<style type="text/css">
	.st0{fill:#39A18F;}
</style>
<path class="st0" d="M-146.2,240.6c-3-8.6-9.9-15.5-18.5-18.5l-1.2,3.5c7.5,2.6,13.6,8.7,16.2,16.2L-146.2,240.6z"/>
<path class="st0" d="M-185.6,223.9c0,0.5,0.2,1,0.5,1.3c0.4,0.3,0.8,0.5,1.3,0.5s1-0.2,1.3-0.5c0.4-0.4,0.6-0.8,0.6-1.3
	s-0.2-1-0.6-1.3c-0.7-0.7-1.9-0.7-2.6,0C-185.4,223-185.6,223.4-185.6,223.9z"/>
<path class="st0" d="M-194.9,231c-0.8-0.7-2-0.6-2.6,0.2c-0.7,0.8-0.6,2,0.2,2.6c0.4,0.3,0.8,0.4,1.2,0.4c0.5,0,1.1-0.2,1.4-0.7
	C-194,232.9-194.1,231.7-194.9,231z"/>
<path class="st0" d="M-196.9,269.4c0.4,0,0.8-0.1,1.1-0.4c0.8-0.6,1-1.8,0.4-2.6c-0.6-0.8-1.8-1-2.6-0.4s-1,1.8-0.4,2.6
	C-198,269.1-197.5,269.4-196.9,269.4z"/>
<path class="st0" d="M-192,228.4c0.4,0.5,0.9,0.8,1.5,0.8c0.4,0,0.7-0.1,1.1-0.3c0.9-0.6,1.1-1.8,0.5-2.6c-0.6-0.9-1.8-1.1-2.6-0.5
	C-192.4,226.4-192.6,227.6-192,228.4z"/>
<path class="st0" d="M-183.3,277.3c0.4-1-0.1-2.1-1-2.4c-1-0.4-2,0.1-2.4,1c-0.4,1,0.1,2.1,1,2.4c0.2,0.1,0.5,0.1,0.7,0.1
	C-184.2,278.5-183.5,278-183.3,277.3z"/>
<path class="st0" d="M-202.5,255.5c0.1,0,0.1,0,0.2,0c1-0.1,1.8-1,1.7-2.1c-0.1-1-1-1.8-2.1-1.7c-1,0.1-1.8,1-1.7,2.1
	C-204.2,254.8-203.4,255.5-202.5,255.5z"/>
<path class="st0" d="M-192.7,274.4c0.3,0.3,0.7,0.4,1.1,0.4c0.6,0,1.1-0.3,1.5-0.7c0.6-0.8,0.5-2-0.4-2.6c-0.8-0.6-2-0.5-2.6,0.4
	C-193.7,272.6-193.5,273.7-192.7,274.4z"/>
<path class="st0" d="M-150.3,265c-0.9-0.6-2-0.4-2.6,0.5c-0.6,0.8-0.4,2,0.5,2.6c0.3,0.2,0.7,0.3,1.1,0.3c0.6,0,1.2-0.3,1.5-0.8
	C-149.3,266.7-149.5,265.6-150.3,265z"/>
<path class="st0" d="M-198.4,239.6c0.4-0.9,0-2.1-0.9-2.5c-0.9-0.4-2.1,0-2.5,0.9c-0.4,0.9,0,2.1,0.9,2.5c0.3,0.1,0.5,0.2,0.8,0.2
	C-199.4,240.7-198.7,240.3-198.4,239.6z"/>
<path class="st0" d="M-202,244.2c-1-0.2-2,0.5-2.1,1.6c-0.2,1,0.5,2,1.6,2.1c0.1,0,0.2,0,0.3,0c0.9,0,1.7-0.7,1.8-1.6
	C-200.3,245.3-201,244.4-202,244.2z"/>
<path class="st0" d="M-200.6,262.8c0.2,0,0.5,0,0.7-0.1c1-0.4,1.4-1.5,1-2.4c-0.4-1-1.5-1.4-2.4-1c-1,0.4-1.4,1.5-1,2.4
	C-202.1,262.4-201.4,262.8-200.6,262.8z"/>
<path class="st0" d="M-162.9,278c0.3,0,0.5-0.1,0.8-0.2c0.9-0.4,1.4-1.5,0.9-2.5c-0.4-0.9-1.5-1.4-2.5-0.9l0,0
	c-0.9,0.4-1.4,1.5-0.9,2.5C-164.3,277.6-163.6,278-162.9,278z"/>
<path class="st0" d="M-168.3,278c-0.2-1-1.1-1.7-2.1-1.6c-1,0.2-1.7,1.1-1.6,2.1c0.1,0.9,0.9,1.6,1.9,1.6c0.1,0,0.2,0,0.3,0l0,0
	C-168.8,280-168.1,279-168.3,278z"/>
<path class="st0" d="M-155.3,273.5c0.8-0.7,0.9-1.9,0.2-2.6c-0.7-0.8-1.8-0.9-2.6-0.2c-0.8,0.7-0.9,1.8-0.2,2.6
	c0.4,0.4,0.9,0.7,1.4,0.7C-156.1,274-155.6,273.8-155.3,273.5z"/>
<path class="st0" d="M-177.5,276.6c-1-0.1-1.9,0.6-2.1,1.7c-0.1,1,0.6,1.9,1.7,2.1c0.1,0,0.1,0,0.2,0c0.9,0,1.8-0.7,1.9-1.7
	C-175.7,277.6-176.4,276.7-177.5,276.6z"/>
<path class="st0" d="M-147.9,261.6c0.5,0,1-0.2,1.3-0.5c0.3-0.3,0.5-0.8,0.5-1.3s-0.2-1-0.5-1.3c-0.7-0.7-2-0.7-2.7,0
	c-0.3,0.3-0.5,0.8-0.5,1.3s0.2,1,0.5,1.3C-148.9,261.4-148.4,261.6-147.9,261.6z"/>
<polygon class="st0" points="-147.3,249.7 -149.7,247.3 -152.4,249.9 -147.3,255 -140.4,248.1 -143,245.4 "/>
<path class="st0" d="M-172.6,222.4c0,1-0.8,1.9-1.9,1.9s-1.9-0.8-1.9-1.9c0-1.1,0.8-1.9,1.9-1.9S-172.6,221.3-172.6,222.4z
	 M-180.1,222.4c0,3.1,2.5,5.6,5.6,5.6s5.6-2.5,5.6-5.6c0-3.1-2.5-5.6-5.6-5.6S-180.1,219.3-180.1,222.4z"/>
<path class="st0" d="M-174.5,237.4c7.2,0,13.1,5.9,13.1,13.1c0,7.2-5.9,13.1-13.1,13.1s-13.1-5.9-13.1-13.1
	C-187.6,243.3-181.7,237.4-174.5,237.4z M-157.6,250.5c0-9.3-7.6-16.9-16.9-16.9s-16.9,7.6-16.9,16.9c0,9.3,7.6,16.9,16.9,16.9
	S-157.6,259.8-157.6,250.5z"/>
<polygon class="st0" points="-168.9,248.6 -172.6,248.6 -172.6,241.1 -176.4,241.1 -176.4,252.4 -168.9,252.4 "/>
</svg>
