<?xml version="1.0" encoding="utf-8"?>
<!-- Generator: Adobe Illustrator 19.0.0, SVG Export Plug-In . SVG Version: 6.00 Build 0)  -->
<!DOCTYPE svg PUBLIC "-//W3C//DTD SVG 1.1//EN" "http://www.w3.org/Graphics/SVG/1.1/DTD/svg11.dtd">
<svg version="1.1" id="Layer_1" xmlns="http://www.w3.org/2000/svg" xmlns:xlink="http://www.w3.org/1999/xlink" x="0px" y="0px"
	 viewBox="0 0 75 75" enable-background="new 0 0 75 75" xml:space="preserve">
<path fill="#85929A" d="M65.8,27.6c-3-8.6-9.9-15.5-18.5-18.5l-1.2,3.5c7.5,2.6,13.6,8.7,16.2,16.2L65.8,27.6z"/>
<path fill="#85929A" d="M26.4,10.9c0,0.5,0.2,1,0.5,1.3c0.4,0.3,0.8,0.5,1.3,0.5c0.5,0,1-0.2,1.3-0.5c0.4-0.4,0.6-0.8,0.6-1.3
	c0-0.5-0.2-1-0.6-1.3c-0.7-0.7-1.9-0.7-2.6,0C26.6,10,26.4,10.4,26.4,10.9z"/>
<path fill="#85929A" d="M17.1,18c-0.8-0.7-2-0.6-2.6,0.2c-0.7,0.8-0.6,2,0.2,2.6c0.4,0.3,0.8,0.4,1.2,0.4c0.5,0,1.1-0.2,1.4-0.7
	C18,19.9,17.9,18.7,17.1,18z"/>
<path fill="#85929A" d="M15.1,56.4c0.4,0,0.8-0.1,1.1-0.4c0.8-0.6,1-1.8,0.4-2.6c-0.6-0.8-1.8-1-2.6-0.4c-0.8,0.6-1,1.8-0.4,2.6
	C14,56.1,14.5,56.4,15.1,56.4z"/>
<path fill="#85929A" d="M20,15.4c0.4,0.5,0.9,0.8,1.5,0.8c0.4,0,0.7-0.1,1.1-0.3c0.9-0.6,1.1-1.8,0.5-2.6c-0.6-0.9-1.8-1.1-2.6-0.5
	C19.6,13.4,19.4,14.6,20,15.4z"/>
<path fill="#85929A" d="M28.7,64.3c0.4-1-0.1-2.1-1-2.4c-1-0.4-2,0.1-2.4,1c-0.4,1,0.1,2.1,1,2.4c0.2,0.1,0.5,0.1,0.7,0.1
	C27.8,65.5,28.5,65,28.7,64.3z"/>
<path fill="#85929A" d="M9.5,42.5c0.1,0,0.1,0,0.2,0c1-0.1,1.8-1,1.7-2.1c-0.1-1-1-1.8-2.1-1.7c-1,0.1-1.8,1-1.7,2.1
	C7.8,41.8,8.6,42.5,9.5,42.5z"/>
<path fill="#85929A" d="M19.3,61.4c0.3,0.3,0.7,0.4,1.1,0.4c0.6,0,1.1-0.3,1.5-0.7c0.6-0.8,0.5-2-0.4-2.6c-0.8-0.6-2-0.5-2.6,0.4
	C18.3,59.6,18.5,60.7,19.3,61.4z"/>
<path fill="#85929A" d="M61.7,52c-0.9-0.6-2-0.4-2.6,0.5c-0.6,0.8-0.4,2,0.5,2.6c0.3,0.2,0.7,0.3,1.1,0.3c0.6,0,1.2-0.3,1.5-0.8
	C62.7,53.7,62.5,52.6,61.7,52z"/>
<path fill="#85929A" d="M13.6,26.6c0.4-0.9,0-2.1-0.9-2.5c-0.9-0.4-2.1,0-2.5,0.9c-0.4,0.9,0,2.1,0.9,2.5c0.3,0.1,0.5,0.2,0.8,0.2
	C12.6,27.7,13.3,27.3,13.6,26.6z"/>
<path fill="#85929A" d="M10,31.2c-1-0.2-2,0.5-2.1,1.6c-0.2,1,0.5,2,1.6,2.1c0.1,0,0.2,0,0.3,0c0.9,0,1.7-0.7,1.8-1.6
	C11.7,32.3,11,31.4,10,31.2z"/>
<path fill="#85929A" d="M11.4,49.8c0.2,0,0.5,0,0.7-0.1c1-0.4,1.4-1.5,1-2.4c-0.4-1-1.5-1.4-2.4-1c-1,0.4-1.4,1.5-1,2.4
	C9.9,49.4,10.6,49.8,11.4,49.8z"/>
<path fill="#85929A" d="M49.1,65c0.3,0,0.5-0.1,0.8-0.2c0.9-0.4,1.4-1.5,0.9-2.5c-0.4-0.9-1.5-1.4-2.5-0.9c0,0,0,0,0,0
	c-0.9,0.4-1.4,1.5-0.9,2.5C47.7,64.6,48.4,65,49.1,65z"/>
<path fill="#85929A" d="M43.7,65c-0.2-1-1.1-1.7-2.1-1.6c-1,0.2-1.7,1.1-1.6,2.1c0.1,0.9,0.9,1.6,1.9,1.6c0.1,0,0.2,0,0.3,0h0
	C43.2,67,43.9,66,43.7,65z"/>
<path fill="#85929A" d="M56.7,60.5c0.8-0.7,0.9-1.9,0.2-2.6c-0.7-0.8-1.8-0.9-2.6-0.2c-0.8,0.7-0.9,1.8-0.2,2.6
	c0.4,0.4,0.9,0.7,1.4,0.7C55.9,61,56.4,60.8,56.7,60.5z"/>
<path fill="#85929A" d="M34.5,63.6c-1-0.1-1.9,0.6-2.1,1.7c-0.1,1,0.6,1.9,1.7,2.1c0.1,0,0.1,0,0.2,0c0.9,0,1.8-0.7,1.9-1.7
	C36.3,64.6,35.6,63.7,34.5,63.6z"/>
<path fill="#85929A" d="M64.1,48.6c0.5,0,1-0.2,1.3-0.5c0.3-0.3,0.5-0.8,0.5-1.3c0-0.5-0.2-1-0.5-1.3c-0.7-0.7-2-0.7-2.7,0
	c-0.3,0.3-0.5,0.8-0.5,1.3c0,0.5,0.2,1,0.5,1.3C63.1,48.4,63.6,48.6,64.1,48.6z"/>
<polygon fill="#85929A" points="64.7,36.7 62.3,34.3 59.6,36.9 64.7,42 71.6,35.1 69,32.4 "/>
<path fill="#85929A" d="M39.4,9.4c0,1-0.8,1.9-1.9,1.9s-1.9-0.8-1.9-1.9s0.8-1.9,1.9-1.9S39.4,8.3,39.4,9.4z M31.9,9.4
	c0,3.1,2.5,5.6,5.6,5.6s5.6-2.5,5.6-5.6c0-3.1-2.5-5.6-5.6-5.6S31.9,6.3,31.9,9.4z"/>
<path fill="#85929A" d="M37.5,24.4c7.2,0,13.1,5.9,13.1,13.1s-5.9,13.1-13.1,13.1s-13.1-5.9-13.1-13.1S30.3,24.4,37.5,24.4z
	 M54.4,37.5c0-9.3-7.6-16.9-16.9-16.9s-16.9,7.6-16.9,16.9s7.6,16.9,16.9,16.9S54.4,46.8,54.4,37.5z"/>
<polygon fill="#85929A" points="43.1,35.6 39.4,35.6 39.4,28.1 35.6,28.1 35.6,39.4 43.1,39.4 "/>
</svg>
