<?xml version="1.0" encoding="utf-8"?>
<!-- Generator: Adobe Illustrator 19.0.0, SVG Export Plug-In . SVG Version: 6.00 Build 0)  -->
<!DOCTYPE svg PUBLIC "-//W3C//DTD SVG 1.1//EN" "http://www.w3.org/Graphics/SVG/1.1/DTD/svg11.dtd">
<svg version="1.1" id="Layer_1" xmlns="http://www.w3.org/2000/svg" xmlns:xlink="http://www.w3.org/1999/xlink" x="0px" y="0px"
	 viewBox="-212 213 75 75" style="enable-background:new -212 213 75 75;" xml:space="preserve">
<style type="text/css">
	.st0{fill:#ED4B7E;}
</style>
<path class="st0" d="M-176.9,260h-0.9H-176.9z M-174.4,260h-0.9H-174.4z M-199,257.8v-0.5h-3.5v2.5c0,1.4,1.1,2.6,2.6,2.6h19.3
	c0,0.1-0.1,0.2-0.1,0.3c0,1.4-1.4,3.8-2.9,5.2l-2.2,2c-1.6,1.5-1.2,2.7,0.9,2.7h17.5c2.1,0,2.6-1.2,0.9-2.7l-2.2-2
	c-1.6-1.5-2.9-3.8-2.9-5.2c0-0.1,0-0.2-0.1-0.3h7v-4.6H-199L-199,257.8z"/>
<path class="st0" d="M-199,230.8h44.9v10.8l3.5-1.6v-11.2c0-1.4-1.1-2.6-2.6-2.6H-200c-1.4,0-2.6,1.1-2.6,2.6v2.4h3.6V230.8
	L-199,230.8z"/>
<polygon class="st0" points="-175.2,241 -177.6,233.3 -180.1,241 -188.1,241 -181.7,245.7 -184.2,253.4 -177.6,248.6 -171.1,253.4 
	-173.6,245.7 -167.1,241 "/>
<path class="st0" d="M-206.3,250.6v-14.4h9.7v14.4H-206.3z M-201.4,253.9c-0.6,0-1.1-0.5-1.1-1.1s0.5-1.1,1.1-1.1
	c0.6,0,1.1,0.5,1.1,1.1C-200.3,253.5-200.8,253.9-201.4,253.9z M-194.8,253.4V235c0-1.3-1.1-2.2-2.3-2.2h-8.8c-1.3,0-2.3,1-2.3,2.2
	v18.4c0,1.3,1.1,2.2,2.3,2.2h8.9C-195.8,255.7-194.8,254.6-194.8,253.4z"/>
<polygon class="st0" points="-197.9,241.3 -200.6,241.3 -201.4,238.7 -202.2,241.3 -205,241.3 -202.8,242.9 -203.7,245.5 
	-201.4,243.9 -199.2,245.5 -200.1,242.9 "/>
<path class="st0" d="M-145.2,246.8h-4.6l4.6-0.9V246.8z M-148.8,243.9l-1.9,0.4l1.9-0.8V243.9z M-160.6,270.8v-21.4h17.1v21.5
	L-160.6,270.8L-160.6,270.8z M-142.2,246.8h-0.4v-2.5c0-0.4-0.1-0.8-0.4-1s-0.7-0.4-1.1-0.3l-0.7,0.1l-1.4,0.3v-1.9
	c0-0.4-0.2-0.8-0.6-1.1c-0.4-0.2-0.8-0.3-1.2-0.1l-14.5,6.4c0,0-0.1,0-0.1,0.1c-0.1,0-0.1,0.1-0.1,0.1c0,0.1-0.1,0.1-0.2,0.1
	l-0.1,0.1c-0.1,0.1-0.1,0.1-0.1,0.2c0,0.1-0.1,0.1-0.1,0.1c-0.1,0.1-0.1,0.3-0.1,0.4V272c0,0.8,0.6,1.3,1.3,1.3h19.7
	c0.7,0,1.3-0.6,1.3-1.3v-24C-141,247.4-141.6,246.8-142.2,246.8z"/>
<polygon class="st0" points="-154.2,260.6 -155.5,264.6 -152.1,262.1 -148.6,264.6 -150,260.6 -146.5,258.1 -150.8,258.1 
	-152.1,254 -153.4,258.1 -157.7,258.1 "/>
</svg>
